<svg xmlns="http://www.w3.org/2000/svg" xmlns:xlink="http://www.w3.org/1999/xlink" width="2000" zoomAndPan="magnify" viewBox="0 0 1500 1499.999933" height="2000" preserveAspectRatio="xMidYMid meet" version="1.0"><defs><clipPath id="6981ea15c8"><path d="M 187.5 0 L 1312.5 0 L 1312.5 1500 L 187.5 1500 Z M 187.5 0 " clip-rule="nonzero"/></clipPath><clipPath id="10311d0a4e"><path d="M 311.179688 867.667969 L 823.429688 867.667969 L 823.429688 1379.917969 L 311.179688 1379.917969 Z M 311.179688 867.667969 " clip-rule="nonzero"/></clipPath></defs><g clip-path="url(#6981ea15c8)"><path fill="#00d491" d="M 1312.574219 187.519531 C 1312.574219 256.613281 1274.980469 316.988281 1219.105469 349.519531 L 1219.105469 1150.425781 C 1274.886719 1182.957031 1312.574219 1243.332031 1312.574219 1312.519531 C 1312.574219 1415.925781 1228.480469 1499.738281 1125.074219 1499.738281 C 1021.667969 1499.738281 937.574219 1415.832031 937.574219 1312.519531 C 937.574219 1243.238281 975.355469 1182.769531 1031.324219 1150.425781 L 1031.324219 1126.519531 C 1031.324219 1126.050781 1031.230469 1125.675781 1031.230469 1125.300781 C 1031.230469 866.457031 821.136719 656.550781 562.480469 656.550781 L 537.355469 656.550781 C 504.730469 712.332031 444.261719 749.832031 375.074219 749.832031 C 271.667969 749.832031 187.574219 665.925781 187.574219 562.613281 C 187.574219 459.300781 271.667969 375.300781 375.074219 375.300781 C 444.449219 375.300781 505.105469 412.894531 537.449219 468.957031 L 562.480469 468.957031 C 746.136719 468.957031 912.261719 544.332031 1031.417969 666.113281 L 1031.324219 349.613281 C 975.355469 317.269531 937.574219 256.707031 937.574219 187.613281 C 937.574219 84.207031 1021.667969 0.394531 1125.074219 0.394531 C 1228.386719 0.300781 1312.574219 84.207031 1312.574219 187.519531 Z M 1312.574219 187.519531 " fill-opacity="1" fill-rule="nonzero"/></g><g clip-path="url(#10311d0a4e)"><path fill="#00d491" d="M 823.289062 1123.722656 C 823.289062 1127.910156 823.1875 1132.101562 822.980469 1136.285156 C 822.773438 1140.472656 822.46875 1144.648438 822.054688 1148.820312 C 821.644531 1152.988281 821.132812 1157.148438 820.519531 1161.292969 C 819.902344 1165.4375 819.1875 1169.566406 818.367188 1173.675781 C 817.550781 1177.785156 816.632812 1181.871094 815.617188 1185.9375 C 814.597656 1190.003906 813.480469 1194.039062 812.261719 1198.050781 C 811.046875 1202.058594 809.734375 1206.039062 808.320312 1209.984375 C 806.910156 1213.929688 805.402344 1217.835938 803.796875 1221.710938 C 802.195312 1225.582031 800.496094 1229.410156 798.707031 1233.199219 C 796.914062 1236.988281 795.03125 1240.730469 793.054688 1244.425781 C 791.078125 1248.121094 789.015625 1251.765625 786.859375 1255.359375 C 784.707031 1258.953125 782.464844 1262.492188 780.136719 1265.976562 C 777.808594 1269.460938 775.394531 1272.886719 772.898438 1276.253906 C 770.402344 1279.617188 767.824219 1282.921875 765.167969 1286.160156 C 762.507812 1289.398438 759.773438 1292.570312 756.957031 1295.675781 C 754.144531 1298.78125 751.253906 1301.816406 748.292969 1304.78125 C 745.328125 1307.742188 742.296875 1310.632812 739.191406 1313.445312 C 736.085938 1316.257812 732.914062 1318.996094 729.671875 1321.65625 C 726.433594 1324.3125 723.132812 1326.890625 719.765625 1329.386719 C 716.398438 1331.882812 712.976562 1334.292969 709.492188 1336.621094 C 706.007812 1338.953125 702.46875 1341.191406 698.871094 1343.347656 C 695.277344 1345.5 691.632812 1347.566406 687.9375 1349.542969 C 684.242188 1351.515625 680.5 1353.402344 676.710938 1355.191406 C 672.921875 1356.984375 669.09375 1358.679688 665.222656 1360.285156 C 661.351562 1361.886719 657.441406 1363.394531 653.496094 1364.808594 C 649.550781 1366.21875 645.574219 1367.535156 641.5625 1368.75 C 637.554688 1369.96875 633.515625 1371.085938 629.449219 1372.101562 C 625.386719 1373.121094 621.296875 1374.039062 617.1875 1374.855469 C 613.078125 1375.671875 608.949219 1376.390625 604.804688 1377.003906 C 600.660156 1377.621094 596.503906 1378.132812 592.332031 1378.542969 C 588.160156 1378.953125 583.984375 1379.261719 579.796875 1379.46875 C 575.613281 1379.671875 571.425781 1379.777344 567.234375 1379.777344 C 563.042969 1379.777344 558.855469 1379.671875 554.671875 1379.46875 C 550.484375 1379.261719 546.308594 1378.953125 542.136719 1378.542969 C 537.964844 1378.132812 533.808594 1377.621094 529.664062 1377.003906 C 525.519531 1376.390625 521.390625 1375.671875 517.28125 1374.855469 C 513.171875 1374.039062 509.082031 1373.121094 505.019531 1372.101562 C 500.953125 1371.085938 496.914062 1369.96875 492.90625 1368.75 C 488.894531 1367.535156 484.917969 1366.21875 480.972656 1364.808594 C 477.027344 1363.394531 473.117188 1361.886719 469.246094 1360.285156 C 465.375 1358.679688 461.546875 1356.984375 457.757812 1355.191406 C 453.96875 1353.402344 450.226562 1351.515625 446.53125 1349.542969 C 442.835938 1347.566406 439.191406 1345.5 435.597656 1343.347656 C 432 1341.191406 428.460938 1338.949219 424.976562 1336.621094 C 421.492188 1334.292969 418.070312 1331.882812 414.703125 1329.386719 C 411.335938 1326.890625 408.035156 1324.3125 404.796875 1321.65625 C 401.554688 1318.996094 398.382812 1316.257812 395.277344 1313.445312 C 392.171875 1310.632812 389.140625 1307.742188 386.175781 1304.78125 C 383.214844 1301.816406 380.324219 1298.78125 377.511719 1295.675781 C 374.695312 1292.570312 371.960938 1289.398438 369.300781 1286.160156 C 366.644531 1282.921875 364.066406 1279.617188 361.570312 1276.253906 C 359.074219 1272.886719 356.660156 1269.460938 354.332031 1265.976562 C 352.003906 1262.492188 349.761719 1258.953125 347.609375 1255.359375 C 345.453125 1251.765625 343.390625 1248.121094 341.414062 1244.425781 C 339.4375 1240.730469 337.554688 1236.988281 335.765625 1233.199219 C 333.972656 1229.410156 332.273438 1225.582031 330.671875 1221.710938 C 329.066406 1217.835938 327.558594 1213.929688 326.148438 1209.984375 C 324.734375 1206.039062 323.421875 1202.058594 322.207031 1198.050781 C 320.988281 1194.039062 319.871094 1190.003906 318.851562 1185.9375 C 317.835938 1181.871094 316.917969 1177.785156 316.101562 1173.675781 C 315.28125 1169.566406 314.566406 1165.4375 313.949219 1161.292969 C 313.335938 1157.148438 312.824219 1152.988281 312.414062 1148.820312 C 312.003906 1144.648438 311.695312 1140.472656 311.488281 1136.285156 C 311.28125 1132.101562 311.179688 1127.910156 311.179688 1123.722656 C 311.179688 1119.53125 311.28125 1115.34375 311.488281 1111.15625 C 311.695312 1106.972656 312.003906 1102.792969 312.414062 1098.625 C 312.824219 1094.453125 313.335938 1090.296875 313.949219 1086.148438 C 314.566406 1082.003906 315.28125 1077.878906 316.101562 1073.765625 C 316.917969 1069.65625 317.835938 1065.570312 318.851562 1061.503906 C 319.871094 1057.441406 320.988281 1053.402344 322.207031 1049.394531 C 323.421875 1045.382812 324.734375 1041.40625 326.148438 1037.460938 C 327.558594 1033.511719 329.066406 1029.605469 330.671875 1025.734375 C 332.273438 1021.863281 333.972656 1018.03125 335.765625 1014.242188 C 337.554688 1010.457031 339.4375 1006.714844 341.414062 1003.019531 C 343.390625 999.324219 345.453125 995.675781 347.609375 992.082031 C 349.761719 988.488281 352.003906 984.949219 354.332031 981.464844 C 356.660156 977.980469 359.074219 974.554688 361.570312 971.191406 C 364.066406 967.824219 366.644531 964.519531 369.300781 961.28125 C 371.960938 958.042969 374.695312 954.871094 377.511719 951.765625 C 380.324219 948.660156 383.214844 945.625 386.175781 942.664062 C 389.140625 939.699219 392.171875 936.8125 395.277344 933.996094 C 398.382812 931.183594 401.554688 928.445312 404.796875 925.789062 C 408.035156 923.128906 411.335938 920.550781 414.703125 918.054688 C 418.070312 915.558594 421.492188 913.148438 424.976562 910.820312 C 428.460938 908.492188 432 906.25 435.597656 904.097656 C 439.191406 901.941406 442.835938 899.875 446.53125 897.902344 C 450.226562 895.925781 453.96875 894.042969 457.757812 892.25 C 461.546875 890.460938 465.375 888.761719 469.246094 887.15625 C 473.117188 885.554688 477.027344 884.046875 480.972656 882.632812 C 484.917969 881.222656 488.894531 879.910156 492.90625 878.691406 C 496.914062 877.476562 500.953125 876.359375 505.019531 875.339844 C 509.082031 874.320312 513.171875 873.402344 517.28125 872.585938 C 521.390625 871.769531 525.519531 871.054688 529.664062 870.4375 C 533.808594 869.824219 537.964844 869.308594 542.136719 868.898438 C 546.308594 868.488281 550.484375 868.179688 554.671875 867.976562 C 558.855469 867.769531 563.042969 867.667969 567.234375 867.667969 C 571.425781 867.667969 575.613281 867.769531 579.796875 867.976562 C 583.984375 868.179688 588.160156 868.488281 592.332031 868.898438 C 596.503906 869.308594 600.660156 869.824219 604.804688 870.4375 C 608.949219 871.054688 613.078125 871.769531 617.1875 872.585938 C 621.296875 873.402344 625.386719 874.320312 629.449219 875.339844 C 633.515625 876.359375 637.554688 877.476562 641.5625 878.691406 C 645.574219 879.910156 649.550781 881.222656 653.496094 882.632812 C 657.441406 884.046875 661.351562 885.554688 665.222656 887.15625 C 669.09375 888.761719 672.921875 890.460938 676.710938 892.25 C 680.5 894.042969 684.242188 895.925781 687.9375 897.902344 C 691.632812 899.875 695.277344 901.941406 698.871094 904.097656 C 702.46875 906.25 706.007812 908.492188 709.492188 910.820312 C 712.976562 913.148438 716.398438 915.558594 719.765625 918.054688 C 723.132812 920.550781 726.433594 923.128906 729.671875 925.789062 C 732.914062 928.445312 736.085938 931.183594 739.191406 933.996094 C 742.296875 936.8125 745.328125 939.699219 748.292969 942.664062 C 751.253906 945.625 754.144531 948.660156 756.957031 951.765625 C 759.773438 954.871094 762.507812 958.042969 765.167969 961.28125 C 767.824219 964.519531 770.402344 967.824219 772.898438 971.191406 C 775.394531 974.554688 777.808594 977.980469 780.136719 981.464844 C 782.464844 984.949219 784.707031 988.488281 786.859375 992.082031 C 789.015625 995.675781 791.078125 999.324219 793.054688 1003.019531 C 795.03125 1006.714844 796.914062 1010.457031 798.707031 1014.242188 C 800.496094 1018.03125 802.195312 1021.863281 803.796875 1025.734375 C 805.402344 1029.605469 806.910156 1033.511719 808.320312 1037.460938 C 809.734375 1041.40625 811.046875 1045.382812 812.261719 1049.394531 C 813.480469 1053.402344 814.597656 1057.441406 815.617188 1061.503906 C 816.632812 1065.570312 817.550781 1069.65625 818.367188 1073.769531 C 819.1875 1077.878906 819.902344 1082.003906 820.519531 1086.148438 C 821.132812 1090.296875 821.644531 1094.453125 822.054688 1098.625 C 822.46875 1102.792969 822.773438 1106.972656 822.980469 1111.15625 C 823.1875 1115.34375 823.289062 1119.53125 823.289062 1123.722656 Z M 823.289062 1123.722656 " fill-opacity="1" fill-rule="nonzero"/></g></svg>